<svg width="354" height="35" viewBox="0 0 354 35" fill="none" xmlns="http://www.w3.org/2000/svg">
<path d="M90.0837 9.04C89.8904 9.04 89.6504 9.03 89.3637 9.01C89.0837 8.99 88.8237 8.98 88.5837 8.98C88.3637 8.98 88.1504 8.98333 87.9437 8.99C87.7437 8.99667 87.5637 9 87.4037 9C87.3904 9 87.3837 8.98 87.3837 8.94C87.3837 8.9 87.3904 8.88 87.4037 8.88C87.6437 8.88 87.827 8.86333 87.9537 8.83C88.0804 8.79667 88.1637 8.73 88.2037 8.63C88.2437 8.53 88.2637 8.38333 88.2637 8.19V3.56C88.2637 3.36667 88.2437 3.22333 88.2037 3.13C88.1637 3.03 88.0804 2.96333 87.9537 2.93C87.8337 2.89 87.6537 2.87 87.4137 2.87C87.4004 2.87 87.3937 2.85 87.3937 2.81C87.3937 2.77 87.4004 2.75 87.4137 2.75C87.5737 2.75 87.7537 2.75667 87.9537 2.77C88.1537 2.77667 88.3637 2.78 88.5837 2.78C88.8037 2.78 89.0404 2.77333 89.2937 2.76C89.547 2.74 89.7637 2.73 89.9437 2.73C90.6504 2.73 91.267 2.86333 91.7937 3.13C92.327 3.39667 92.7404 3.76 93.0337 4.22C93.327 4.68 93.4737 5.19667 93.4737 5.77C93.4737 6.27 93.3837 6.72333 93.2037 7.13C93.0304 7.53 92.7837 7.87333 92.4637 8.16C92.1504 8.44 91.787 8.65667 91.3737 8.81C90.967 8.96333 90.537 9.04 90.0837 9.04ZM89.9837 8.89C90.517 8.89 90.987 8.78 91.3937 8.56C91.8004 8.33333 92.1204 8.00333 92.3537 7.57C92.5937 7.13667 92.7137 6.61 92.7137 5.99C92.7137 5.41 92.6037 4.88667 92.3837 4.42C92.1637 3.94667 91.8537 3.57333 91.4537 3.3C91.0604 3.02 90.587 2.88 90.0337 2.88C89.6337 2.88 89.347 2.92 89.1737 3C89.0004 3.08 88.9137 3.27333 88.9137 3.58V8.08C88.9137 8.36 88.9804 8.56667 89.1137 8.7C89.2537 8.82667 89.5437 8.89 89.9837 8.89ZM96.148 9.12C95.748 9.12 95.4113 9.03 95.138 8.85C94.8647 8.66333 94.658 8.42333 94.518 8.13C94.3847 7.83667 94.318 7.52667 94.318 7.2C94.318 6.79333 94.4113 6.43 94.598 6.11C94.7847 5.78333 95.038 5.52667 95.358 5.34C95.6847 5.14667 96.0413 5.05 96.428 5.05C96.808 5.05 97.0947 5.15 97.288 5.35C97.488 5.55 97.588 5.83 97.588 6.19C97.588 6.27667 97.578 6.34333 97.558 6.39C97.5447 6.43 97.5147 6.45 97.468 6.45H96.908C96.9347 6.04333 96.8747 5.74333 96.728 5.55C96.5813 5.35 96.3713 5.25 96.098 5.25C95.7447 5.25 95.468 5.39 95.268 5.67C95.0747 5.95 94.978 6.33333 94.978 6.82C94.978 7.2 95.038 7.53667 95.158 7.83C95.278 8.12333 95.4547 8.35333 95.688 8.52C95.9213 8.68667 96.2047 8.77 96.538 8.77C96.7647 8.77 96.9513 8.73667 97.098 8.67C97.2447 8.60333 97.3913 8.52667 97.538 8.44C97.5513 8.42667 97.568 8.43667 97.588 8.47C97.6147 8.49667 97.6213 8.52 97.608 8.54C97.3747 8.74667 97.1347 8.89667 96.888 8.99C96.648 9.07667 96.4013 9.12 96.148 9.12ZM94.798 6.46L94.788 6.33L97.058 6.29V6.45L94.798 6.46ZM102.264 9.12C102.104 9.12 101.95 9.09333 101.804 9.04C101.657 8.99333 101.537 8.91 101.444 8.79C101.35 8.67 101.304 8.50667 101.304 8.3V5.95C101.304 5.79 101.294 5.67 101.274 5.59C101.254 5.51 101.207 5.46 101.134 5.44C101.06 5.41333 100.947 5.4 100.794 5.4C100.767 5.4 100.754 5.38 100.754 5.34C100.754 5.29333 100.767 5.27 100.794 5.27C101.06 5.26333 101.277 5.19 101.444 5.05C101.617 4.91 101.714 4.73 101.734 4.51C101.734 4.49 101.757 4.48 101.804 4.48C101.857 4.48 101.884 4.49 101.884 4.51V7.96C101.884 8.23333 101.95 8.43667 102.084 8.57C102.224 8.70333 102.42 8.77 102.674 8.77C102.847 8.77 103 8.74333 103.134 8.69C103.274 8.63 103.387 8.56333 103.474 8.49C103.5 8.47667 103.524 8.48667 103.544 8.52C103.57 8.54667 103.57 8.57 103.544 8.59C103.297 8.77667 103.074 8.91333 102.874 9C102.68 9.08 102.477 9.12 102.264 9.12ZM103.234 5.63C102.974 5.56333 102.724 5.52 102.484 5.5C102.244 5.48 101.987 5.47 101.714 5.47V5.25C101.98 5.25 102.237 5.24 102.484 5.22C102.73 5.2 102.994 5.17667 103.274 5.15C103.287 5.15 103.3 5.17333 103.314 5.22C103.334 5.26667 103.344 5.32333 103.344 5.39C103.344 5.43667 103.33 5.49 103.304 5.55C103.284 5.61 103.26 5.63667 103.234 5.63ZM106.073 9.13C105.679 9.13 105.336 9.03333 105.043 8.84C104.749 8.64667 104.523 8.39 104.363 8.07C104.203 7.74333 104.123 7.39333 104.123 7.02C104.123 6.67333 104.186 6.37333 104.313 6.12C104.439 5.86667 104.609 5.66 104.823 5.5C105.036 5.33333 105.266 5.21 105.513 5.13C105.766 5.05 106.013 5.01 106.253 5.01C106.659 5.01 107.006 5.11 107.293 5.31C107.586 5.51 107.809 5.76667 107.963 6.08C108.116 6.39333 108.193 6.72333 108.193 7.07C108.193 7.49667 108.096 7.86333 107.903 8.17C107.709 8.47667 107.453 8.71333 107.133 8.88C106.813 9.04667 106.459 9.13 106.073 9.13ZM106.363 8.94C106.716 8.94 106.996 8.81667 107.203 8.57C107.409 8.31667 107.513 7.91 107.513 7.35C107.513 6.93 107.443 6.56 107.303 6.24C107.169 5.91333 106.983 5.66 106.743 5.48C106.503 5.29333 106.229 5.2 105.923 5.2C105.569 5.2 105.293 5.33 105.093 5.59C104.893 5.85 104.793 6.22333 104.793 6.71C104.793 7.11667 104.859 7.49 104.993 7.83C105.126 8.17 105.309 8.44 105.543 8.64C105.783 8.84 106.056 8.94 106.363 8.94ZM110.468 9.13C110.195 9.13 109.938 9.05 109.698 8.89C109.458 8.73 109.265 8.51 109.118 8.23C108.978 7.94333 108.908 7.60667 108.908 7.22C108.908 6.84 108.978 6.51333 109.118 6.24C109.265 5.96 109.451 5.73 109.678 5.55C109.905 5.37 110.151 5.23667 110.418 5.15C110.685 5.05667 110.941 5.01 111.188 5.01C111.421 5.01 111.641 5.05 111.848 5.13C112.055 5.21 112.241 5.32 112.408 5.46L112.298 6.13C112.131 5.87 111.945 5.65333 111.738 5.48C111.531 5.3 111.258 5.21 110.918 5.21C110.511 5.21 110.181 5.35667 109.928 5.65C109.681 5.93667 109.558 6.36 109.558 6.92C109.558 7.3 109.615 7.63 109.728 7.91C109.841 8.18333 109.998 8.39667 110.198 8.55C110.398 8.69667 110.618 8.77 110.858 8.77C111.158 8.77 111.425 8.68667 111.658 8.52C111.891 8.35333 112.111 8.15333 112.318 7.92L112.398 7.99C112.258 8.15 112.095 8.32 111.908 8.5C111.721 8.67333 111.508 8.82333 111.268 8.95C111.035 9.07 110.768 9.13 110.468 9.13ZM112.708 1.83V7.9C112.708 8.14 112.735 8.31333 112.788 8.42C112.841 8.52667 112.935 8.58 113.068 8.58C113.135 8.58 113.211 8.57333 113.298 8.56C113.391 8.54 113.488 8.5 113.588 8.44C113.621 8.42667 113.645 8.44 113.658 8.48C113.678 8.51333 113.675 8.53667 113.648 8.55L112.548 9.07C112.521 9.08333 112.495 9.09 112.468 9.09C112.388 9.09 112.315 9.01333 112.248 8.86C112.181 8.70667 112.148 8.48333 112.148 8.19V3.03C112.148 2.79 112.125 2.61667 112.078 2.51C112.031 2.40333 111.945 2.35 111.818 2.35C111.758 2.35 111.691 2.36333 111.618 2.39C111.551 2.41 111.465 2.44333 111.358 2.49C111.331 2.50333 111.308 2.49 111.288 2.45C111.275 2.41 111.278 2.38667 111.298 2.38L112.568 1.76C112.581 1.75333 112.598 1.75 112.618 1.75C112.638 1.75 112.658 1.76 112.678 1.78C112.698 1.79333 112.708 1.81 112.708 1.83ZM115.975 9.13C115.582 9.13 115.238 9.03333 114.945 8.84C114.652 8.64667 114.425 8.39 114.265 8.07C114.105 7.74333 114.025 7.39333 114.025 7.02C114.025 6.67333 114.088 6.37333 114.215 6.12C114.342 5.86667 114.512 5.66 114.725 5.5C114.938 5.33333 115.168 5.21 115.415 5.13C115.668 5.05 115.915 5.01 116.155 5.01C116.562 5.01 116.908 5.11 117.195 5.31C117.488 5.51 117.712 5.76667 117.865 6.08C118.018 6.39333 118.095 6.72333 118.095 7.07C118.095 7.49667 117.998 7.86333 117.805 8.17C117.612 8.47667 117.355 8.71333 117.035 8.88C116.715 9.04667 116.362 9.13 115.975 9.13ZM116.265 8.94C116.618 8.94 116.898 8.81667 117.105 8.57C117.312 8.31667 117.415 7.91 117.415 7.35C117.415 6.93 117.345 6.56 117.205 6.24C117.072 5.91333 116.885 5.66 116.645 5.48C116.405 5.29333 116.132 5.2 115.825 5.2C115.472 5.2 115.195 5.33 114.995 5.59C114.795 5.85 114.695 6.22333 114.695 6.71C114.695 7.11667 114.762 7.49 114.895 7.83C115.028 8.17 115.212 8.44 115.445 8.64C115.685 8.84 115.958 8.94 116.265 8.94ZM119.45 5.75C119.45 5.92333 119.494 6.07 119.58 6.19C119.674 6.31 119.787 6.41333 119.92 6.5C120.06 6.58 120.207 6.66 120.36 6.74C120.534 6.82667 120.697 6.92 120.85 7.02C121.004 7.11333 121.13 7.23 121.23 7.37C121.33 7.50333 121.38 7.68 121.38 7.9C121.38 8.11333 121.327 8.31333 121.22 8.5C121.114 8.68 120.954 8.82667 120.74 8.94C120.534 9.05333 120.277 9.11 119.97 9.11C119.804 9.11 119.644 9.08667 119.49 9.04C119.337 9 119.177 8.92333 119.01 8.81C118.997 8.79667 118.984 8.78 118.97 8.76C118.957 8.74 118.95 8.71667 118.95 8.69L118.93 7.91C118.93 7.89 118.947 7.88 118.98 7.88C119.02 7.87333 119.044 7.88 119.05 7.9C119.13 8.12667 119.23 8.31667 119.35 8.47C119.47 8.61667 119.607 8.73 119.76 8.81C119.914 8.88333 120.077 8.92 120.25 8.92C120.464 8.92 120.627 8.86667 120.74 8.76C120.86 8.65333 120.917 8.49667 120.91 8.29C120.904 8.09667 120.854 7.94 120.76 7.82C120.667 7.7 120.55 7.6 120.41 7.52C120.277 7.43333 120.137 7.35333 119.99 7.28C119.824 7.2 119.664 7.11667 119.51 7.03C119.364 6.93667 119.24 6.82 119.14 6.68C119.047 6.54 119 6.35667 119 6.13C119 5.87 119.067 5.66 119.2 5.5C119.334 5.33333 119.504 5.21333 119.71 5.14C119.917 5.06 120.134 5.02 120.36 5.02C120.487 5.02 120.61 5.03 120.73 5.05C120.85 5.07 120.97 5.11 121.09 5.17C121.15 5.19 121.18 5.22667 121.18 5.28C121.18 5.38667 121.177 5.5 121.17 5.62C121.164 5.73333 121.16 5.86333 121.16 6.01C121.16 6.02333 121.14 6.03 121.1 6.03C121.06 6.03 121.04 6.02333 121.04 6.01C121.04 5.85667 120.987 5.72 120.88 5.6C120.774 5.48 120.64 5.38667 120.48 5.32C120.32 5.24667 120.16 5.21 120 5.21C119.84 5.21 119.707 5.25333 119.6 5.34C119.5 5.42667 119.45 5.56333 119.45 5.75ZM126.483 9.13C126.09 9.13 125.746 9.03333 125.453 8.84C125.16 8.64667 124.933 8.39 124.773 8.07C124.613 7.74333 124.533 7.39333 124.533 7.02C124.533 6.67333 124.596 6.37333 124.723 6.12C124.85 5.86667 125.02 5.66 125.233 5.5C125.446 5.33333 125.676 5.21 125.923 5.13C126.176 5.05 126.423 5.01 126.663 5.01C127.07 5.01 127.416 5.11 127.703 5.31C127.996 5.51 128.22 5.76667 128.373 6.08C128.526 6.39333 128.603 6.72333 128.603 7.07C128.603 7.49667 128.506 7.86333 128.313 8.17C128.12 8.47667 127.863 8.71333 127.543 8.88C127.223 9.04667 126.87 9.13 126.483 9.13ZM126.773 8.94C127.126 8.94 127.406 8.81667 127.613 8.57C127.82 8.31667 127.923 7.91 127.923 7.35C127.923 6.93 127.853 6.56 127.713 6.24C127.58 5.91333 127.393 5.66 127.153 5.48C126.913 5.29333 126.64 5.2 126.333 5.2C125.98 5.2 125.703 5.33 125.503 5.59C125.303 5.85 125.203 6.22333 125.203 6.71C125.203 7.11667 125.27 7.49 125.403 7.83C125.536 8.17 125.72 8.44 125.953 8.64C126.193 8.84 126.466 8.94 126.773 8.94ZM129.958 5.75C129.958 5.92333 130.001 6.07 130.088 6.19C130.181 6.31 130.295 6.41333 130.428 6.5C130.568 6.58 130.715 6.66 130.868 6.74C131.041 6.82667 131.205 6.92 131.358 7.02C131.511 7.11333 131.638 7.23 131.738 7.37C131.838 7.50333 131.888 7.68 131.888 7.9C131.888 8.11333 131.835 8.31333 131.728 8.5C131.621 8.68 131.461 8.82667 131.248 8.94C131.041 9.05333 130.785 9.11 130.478 9.11C130.311 9.11 130.151 9.08667 129.998 9.04C129.845 9 129.685 8.92333 129.518 8.81C129.505 8.79667 129.491 8.78 129.478 8.76C129.465 8.74 129.458 8.71667 129.458 8.69L129.438 7.91C129.438 7.89 129.455 7.88 129.488 7.88C129.528 7.87333 129.551 7.88 129.558 7.9C129.638 8.12667 129.738 8.31667 129.858 8.47C129.978 8.61667 130.115 8.73 130.268 8.81C130.421 8.88333 130.585 8.92 130.758 8.92C130.971 8.92 131.135 8.86667 131.248 8.76C131.368 8.65333 131.425 8.49667 131.418 8.29C131.411 8.09667 131.361 7.94 131.268 7.82C131.175 7.7 131.058 7.6 130.918 7.52C130.785 7.43333 130.645 7.35333 130.498 7.28C130.331 7.2 130.171 7.11667 130.018 7.03C129.871 6.93667 129.748 6.82 129.648 6.68C129.555 6.54 129.508 6.35667 129.508 6.13C129.508 5.87 129.575 5.66 129.708 5.5C129.841 5.33333 130.011 5.21333 130.218 5.14C130.425 5.06 130.641 5.02 130.868 5.02C130.995 5.02 131.118 5.03 131.238 5.05C131.358 5.07 131.478 5.11 131.598 5.17C131.658 5.19 131.688 5.22667 131.688 5.28C131.688 5.38667 131.685 5.5 131.678 5.62C131.671 5.73333 131.668 5.86333 131.668 6.01C131.668 6.02333 131.648 6.03 131.608 6.03C131.568 6.03 131.548 6.02333 131.548 6.01C131.548 5.85667 131.495 5.72 131.388 5.6C131.281 5.48 131.148 5.38667 130.988 5.32C130.828 5.24667 130.668 5.21 130.508 5.21C130.348 5.21 130.215 5.25333 130.108 5.34C130.008 5.42667 129.958 5.56333 129.958 5.75ZM136.601 9.13C136.327 9.13 136.071 9.05 135.831 8.89C135.591 8.73 135.397 8.51 135.251 8.23C135.111 7.94333 135.041 7.60667 135.041 7.22C135.041 6.84 135.111 6.51333 135.251 6.24C135.397 5.96 135.584 5.73 135.811 5.55C136.037 5.37 136.284 5.23667 136.551 5.15C136.817 5.05667 137.074 5.01 137.321 5.01C137.554 5.01 137.774 5.05 137.981 5.13C138.187 5.21 138.374 5.32 138.541 5.46L138.431 6.13C138.264 5.87 138.077 5.65333 137.871 5.48C137.664 5.3 137.391 5.21 137.051 5.21C136.644 5.21 136.314 5.35667 136.061 5.65C135.814 5.93667 135.691 6.36 135.691 6.92C135.691 7.3 135.747 7.63 135.861 7.91C135.974 8.18333 136.131 8.39667 136.331 8.55C136.531 8.69667 136.751 8.77 136.991 8.77C137.291 8.77 137.557 8.68667 137.791 8.52C138.024 8.35333 138.244 8.15333 138.451 7.92L138.531 7.99C138.391 8.15 138.227 8.32 138.041 8.5C137.854 8.67333 137.641 8.82333 137.401 8.95C137.167 9.07 136.901 9.13 136.601 9.13ZM138.841 1.83V7.9C138.841 8.14 138.867 8.31333 138.921 8.42C138.974 8.52667 139.067 8.58 139.201 8.58C139.267 8.58 139.344 8.57333 139.431 8.56C139.524 8.54 139.621 8.5 139.721 8.44C139.754 8.42667 139.777 8.44 139.791 8.48C139.811 8.51333 139.807 8.53667 139.781 8.55L138.681 9.07C138.654 9.08333 138.627 9.09 138.601 9.09C138.521 9.09 138.447 9.01333 138.381 8.86C138.314 8.70667 138.281 8.48333 138.281 8.19V3.03C138.281 2.79 138.257 2.61667 138.211 2.51C138.164 2.40333 138.077 2.35 137.951 2.35C137.891 2.35 137.824 2.36333 137.751 2.39C137.684 2.41 137.597 2.44333 137.491 2.49C137.464 2.50333 137.441 2.49 137.421 2.45C137.407 2.41 137.411 2.38667 137.431 2.38L138.701 1.76C138.714 1.75333 138.731 1.75 138.751 1.75C138.771 1.75 138.791 1.76 138.811 1.78C138.831 1.79333 138.841 1.81 138.841 1.83ZM141.988 9.12C141.588 9.12 141.251 9.03 140.978 8.85C140.705 8.66333 140.498 8.42333 140.358 8.13C140.225 7.83667 140.158 7.52667 140.158 7.2C140.158 6.79333 140.251 6.43 140.438 6.11C140.625 5.78333 140.878 5.52667 141.198 5.34C141.525 5.14667 141.881 5.05 142.268 5.05C142.648 5.05 142.935 5.15 143.128 5.35C143.328 5.55 143.428 5.83 143.428 6.19C143.428 6.27667 143.418 6.34333 143.398 6.39C143.385 6.43 143.355 6.45 143.308 6.45H142.748C142.775 6.04333 142.715 5.74333 142.568 5.55C142.421 5.35 142.211 5.25 141.938 5.25C141.585 5.25 141.308 5.39 141.108 5.67C140.915 5.95 140.818 6.33333 140.818 6.82C140.818 7.2 140.878 7.53667 140.998 7.83C141.118 8.12333 141.295 8.35333 141.528 8.52C141.761 8.68667 142.045 8.77 142.378 8.77C142.605 8.77 142.791 8.73667 142.938 8.67C143.085 8.60333 143.231 8.52667 143.378 8.44C143.391 8.42667 143.408 8.43667 143.428 8.47C143.455 8.49667 143.461 8.52 143.448 8.54C143.215 8.74667 142.975 8.89667 142.728 8.99C142.488 9.07667 142.241 9.12 141.988 9.12ZM140.638 6.46L140.628 6.33L142.898 6.29V6.45L140.638 6.46ZM144.88 5.75C144.88 5.92333 144.923 6.07 145.01 6.19C145.103 6.31 145.217 6.41333 145.35 6.5C145.49 6.58 145.637 6.66 145.79 6.74C145.963 6.82667 146.127 6.92 146.28 7.02C146.433 7.11333 146.56 7.23 146.66 7.37C146.76 7.50333 146.81 7.68 146.81 7.9C146.81 8.11333 146.757 8.31333 146.65 8.5C146.543 8.68 146.383 8.82667 146.17 8.94C145.963 9.05333 145.707 9.11 145.4 9.11C145.233 9.11 145.073 9.08667 144.92 9.04C144.767 9 144.607 8.92333 144.44 8.81C144.427 8.79667 144.413 8.78 144.4 8.76C144.387 8.74 144.38 8.71667 144.38 8.69L144.36 7.91C144.36 7.89 144.377 7.88 144.41 7.88C144.45 7.87333 144.473 7.88 144.48 7.9C144.56 8.12667 144.66 8.31667 144.78 8.47C144.9 8.61667 145.037 8.73 145.19 8.81C145.343 8.88333 145.507 8.92 145.68 8.92C145.893 8.92 146.057 8.86667 146.17 8.76C146.29 8.65333 146.347 8.49667 146.34 8.29C146.333 8.09667 146.283 7.94 146.19 7.82C146.097 7.7 145.98 7.6 145.84 7.52C145.707 7.43333 145.567 7.35333 145.42 7.28C145.253 7.2 145.093 7.11667 144.94 7.03C144.793 6.93667 144.67 6.82 144.57 6.68C144.477 6.54 144.43 6.35667 144.43 6.13C144.43 5.87 144.497 5.66 144.63 5.5C144.763 5.33333 144.933 5.21333 145.14 5.14C145.347 5.06 145.563 5.02 145.79 5.02C145.917 5.02 146.04 5.03 146.16 5.05C146.28 5.07 146.4 5.11 146.52 5.17C146.58 5.19 146.61 5.22667 146.61 5.28C146.61 5.38667 146.607 5.5 146.6 5.62C146.593 5.73333 146.59 5.86333 146.59 6.01C146.59 6.02333 146.57 6.03 146.53 6.03C146.49 6.03 146.47 6.02333 146.47 6.01C146.47 5.85667 146.417 5.72 146.31 5.6C146.203 5.48 146.07 5.38667 145.91 5.32C145.75 5.24667 145.59 5.21 145.43 5.21C145.27 5.21 145.137 5.25333 145.03 5.34C144.93 5.42667 144.88 5.56333 144.88 5.75ZM149.139 9.12C148.979 9.12 148.825 9.09333 148.679 9.04C148.532 8.99333 148.412 8.91 148.319 8.79C148.225 8.67 148.179 8.50667 148.179 8.3V5.95C148.179 5.79 148.169 5.67 148.149 5.59C148.129 5.51 148.082 5.46 148.009 5.44C147.935 5.41333 147.822 5.4 147.669 5.4C147.642 5.4 147.629 5.38 147.629 5.34C147.629 5.29333 147.642 5.27 147.669 5.27C147.935 5.26333 148.152 5.19 148.319 5.05C148.492 4.91 148.589 4.73 148.609 4.51C148.609 4.49 148.632 4.48 148.679 4.48C148.732 4.48 148.759 4.49 148.759 4.51V7.96C148.759 8.23333 148.825 8.43667 148.959 8.57C149.099 8.70333 149.295 8.77 149.549 8.77C149.722 8.77 149.875 8.74333 150.009 8.69C150.149 8.63 150.262 8.56333 150.349 8.49C150.375 8.47667 150.399 8.48667 150.419 8.52C150.445 8.54667 150.445 8.57 150.419 8.59C150.172 8.77667 149.949 8.91333 149.749 9C149.555 9.08 149.352 9.12 149.139 9.12ZM150.109 5.63C149.849 5.56333 149.599 5.52 149.359 5.5C149.119 5.48 148.862 5.47 148.589 5.47V5.25C148.855 5.25 149.112 5.24 149.359 5.22C149.605 5.2 149.869 5.17667 150.149 5.15C150.162 5.15 150.175 5.17333 150.189 5.22C150.209 5.26667 150.219 5.32333 150.219 5.39C150.219 5.43667 150.205 5.49 150.179 5.55C150.159 5.61 150.135 5.63667 150.109 5.63ZM151.168 9C151.154 9 151.148 8.98 151.148 8.94C151.148 8.9 151.154 8.88 151.168 8.88C151.428 8.88 151.598 8.83667 151.678 8.75C151.764 8.65667 151.808 8.47 151.808 8.19V6.32C151.808 6.08667 151.784 5.91667 151.738 5.81C151.691 5.69667 151.604 5.64 151.478 5.64C151.424 5.64 151.361 5.65333 151.288 5.68C151.214 5.7 151.128 5.73333 151.028 5.78C151.001 5.78667 150.978 5.77333 150.958 5.74C150.944 5.7 150.948 5.67333 150.968 5.66L152.268 5.06C152.288 5.05333 152.301 5.05 152.308 5.05C152.321 5.05 152.338 5.06 152.358 5.08C152.378 5.09333 152.388 5.11 152.388 5.13C152.388 5.18333 152.384 5.31333 152.378 5.52C152.371 5.72667 152.368 5.99 152.368 6.31V8.19C152.368 8.47 152.404 8.65667 152.478 8.75C152.558 8.83667 152.731 8.88 152.998 8.88C153.018 8.88 153.028 8.9 153.028 8.94C153.028 8.98 153.018 9 152.998 9C152.878 9 152.738 8.99667 152.578 8.99C152.424 8.98333 152.261 8.98 152.088 8.98C151.914 8.98 151.748 8.98333 151.588 8.99C151.434 8.99667 151.294 9 151.168 9ZM152.008 3.88C151.874 3.88 151.768 3.84333 151.688 3.77C151.608 3.69667 151.568 3.59333 151.568 3.46C151.568 3.32667 151.608 3.22333 151.688 3.15C151.768 3.07667 151.874 3.04 152.008 3.04C152.141 3.04 152.244 3.07667 152.318 3.15C152.391 3.22333 152.428 3.32667 152.428 3.46C152.428 3.74 152.288 3.88 152.008 3.88ZM156.512 9C156.492 9 156.482 8.98 156.482 8.94C156.482 8.9 156.492 8.88 156.512 8.88C156.772 8.88 156.939 8.83667 157.012 8.75C157.092 8.65667 157.132 8.47 157.132 8.19V6.57C157.132 6.17 157.059 5.88 156.912 5.7C156.765 5.51333 156.532 5.42 156.212 5.42C155.972 5.42 155.725 5.49667 155.472 5.65C155.219 5.80333 155.002 6.01333 154.822 6.28L154.782 6.16C155.075 5.76667 155.365 5.47667 155.652 5.29C155.945 5.10333 156.242 5.01 156.542 5.01C156.909 5.01 157.192 5.11333 157.392 5.32C157.599 5.52 157.702 5.82333 157.702 6.23V8.19C157.702 8.47 157.739 8.65667 157.812 8.75C157.892 8.83667 158.062 8.88 158.322 8.88C158.342 8.88 158.352 8.9 158.352 8.94C158.352 8.98 158.342 9 158.322 9C158.209 9 158.072 8.99667 157.912 8.99C157.759 8.98333 157.595 8.98 157.422 8.98C157.249 8.98 157.082 8.98333 156.922 8.99C156.762 8.99667 156.625 9 156.512 9ZM153.822 9C153.802 9 153.792 8.98 153.792 8.94C153.792 8.9 153.802 8.88 153.822 8.88C154.082 8.88 154.249 8.83667 154.322 8.75C154.402 8.65667 154.442 8.47 154.442 8.19V6.21C154.442 5.99 154.415 5.83 154.362 5.73C154.315 5.62333 154.225 5.57 154.092 5.57C154.025 5.57 153.945 5.58333 153.852 5.61C153.765 5.63667 153.665 5.67333 153.552 5.72C153.525 5.72667 153.502 5.71333 153.482 5.68C153.469 5.64667 153.475 5.62333 153.502 5.61L154.662 5.06C154.682 5.05333 154.702 5.05 154.722 5.05C154.769 5.05 154.829 5.12 154.902 5.26C154.975 5.4 155.012 5.60333 155.012 5.87V8.19C155.012 8.47 155.049 8.65667 155.122 8.75C155.202 8.83667 155.372 8.88 155.632 8.88C155.652 8.88 155.662 8.9 155.662 8.94C155.662 8.98 155.652 9 155.632 9C155.519 9 155.382 8.99667 155.222 8.99C155.069 8.98333 154.905 8.98 154.732 8.98C154.559 8.98 154.392 8.98333 154.232 8.99C154.072 8.99667 153.935 9 153.822 9ZM160.848 9.13C160.455 9.13 160.111 9.03333 159.818 8.84C159.525 8.64667 159.298 8.39 159.138 8.07C158.978 7.74333 158.898 7.39333 158.898 7.02C158.898 6.67333 158.961 6.37333 159.088 6.12C159.215 5.86667 159.385 5.66 159.598 5.5C159.811 5.33333 160.041 5.21 160.288 5.13C160.541 5.05 160.788 5.01 161.028 5.01C161.435 5.01 161.781 5.11 162.068 5.31C162.361 5.51 162.585 5.76667 162.738 6.08C162.891 6.39333 162.968 6.72333 162.968 7.07C162.968 7.49667 162.871 7.86333 162.678 8.17C162.485 8.47667 162.228 8.71333 161.908 8.88C161.588 9.04667 161.235 9.13 160.848 9.13ZM161.138 8.94C161.491 8.94 161.771 8.81667 161.978 8.57C162.185 8.31667 162.288 7.91 162.288 7.35C162.288 6.93 162.218 6.56 162.078 6.24C161.945 5.91333 161.758 5.66 161.518 5.48C161.278 5.29333 161.005 5.2 160.698 5.2C160.345 5.2 160.068 5.33 159.868 5.59C159.668 5.85 159.568 6.22333 159.568 6.71C159.568 7.11667 159.635 7.49 159.768 7.83C159.901 8.17 160.085 8.44 160.318 8.64C160.558 8.84 160.831 8.94 161.138 8.94ZM164.323 5.75C164.323 5.92333 164.367 6.07 164.453 6.19C164.547 6.31 164.66 6.41333 164.793 6.5C164.933 6.58 165.08 6.66 165.233 6.74C165.407 6.82667 165.57 6.92 165.723 7.02C165.877 7.11333 166.003 7.23 166.103 7.37C166.203 7.50333 166.253 7.68 166.253 7.9C166.253 8.11333 166.2 8.31333 166.093 8.5C165.987 8.68 165.827 8.82667 165.613 8.94C165.407 9.05333 165.15 9.11 164.843 9.11C164.677 9.11 164.517 9.08667 164.363 9.04C164.21 9 164.05 8.92333 163.883 8.81C163.87 8.79667 163.857 8.78 163.843 8.76C163.83 8.74 163.823 8.71667 163.823 8.69L163.803 7.91C163.803 7.89 163.82 7.88 163.853 7.88C163.893 7.87333 163.917 7.88 163.923 7.9C164.003 8.12667 164.103 8.31667 164.223 8.47C164.343 8.61667 164.48 8.73 164.633 8.81C164.787 8.88333 164.95 8.92 165.123 8.92C165.337 8.92 165.5 8.86667 165.613 8.76C165.733 8.65333 165.79 8.49667 165.783 8.29C165.777 8.09667 165.727 7.94 165.633 7.82C165.54 7.7 165.423 7.6 165.283 7.52C165.15 7.43333 165.01 7.35333 164.863 7.28C164.697 7.2 164.537 7.11667 164.383 7.03C164.237 6.93667 164.113 6.82 164.013 6.68C163.92 6.54 163.873 6.35667 163.873 6.13C163.873 5.87 163.94 5.66 164.073 5.5C164.207 5.33333 164.377 5.21333 164.583 5.14C164.79 5.06 165.007 5.02 165.233 5.02C165.36 5.02 165.483 5.03 165.603 5.05C165.723 5.07 165.843 5.11 165.963 5.17C166.023 5.19 166.053 5.22667 166.053 5.28C166.053 5.38667 166.05 5.5 166.043 5.62C166.037 5.73333 166.033 5.86333 166.033 6.01C166.033 6.02333 166.013 6.03 165.973 6.03C165.933 6.03 165.913 6.02333 165.913 6.01C165.913 5.85667 165.86 5.72 165.753 5.6C165.647 5.48 165.513 5.38667 165.353 5.32C165.193 5.24667 165.033 5.21 164.873 5.21C164.713 5.21 164.58 5.25333 164.473 5.34C164.373 5.42667 164.323 5.56333 164.323 5.75ZM167.722 8.29C167.922 8.29 168.079 8.36333 168.192 8.51C168.305 8.65 168.362 8.87 168.362 9.17C168.362 9.47667 168.295 9.76333 168.162 10.03C168.029 10.2967 167.845 10.5567 167.612 10.81C167.585 10.83 167.562 10.8267 167.542 10.8C167.522 10.78 167.519 10.76 167.532 10.74C167.692 10.52 167.795 10.3133 167.842 10.12C167.889 9.92667 167.912 9.72667 167.912 9.52C167.912 9.32667 167.882 9.17333 167.822 9.06C167.769 8.95333 167.705 8.86667 167.632 8.8L168.012 8.73C168.019 8.84333 167.989 8.93 167.922 8.99C167.855 9.05 167.769 9.08 167.662 9.08C167.535 9.08 167.435 9.04667 167.362 8.98C167.295 8.90667 167.262 8.81 167.262 8.69C167.262 8.56333 167.299 8.46667 167.372 8.4C167.452 8.32667 167.569 8.29 167.722 8.29ZM173.453 9.12C173.053 9.12 172.716 9.03 172.443 8.85C172.169 8.66333 171.963 8.42333 171.823 8.13C171.689 7.83667 171.623 7.52667 171.623 7.2C171.623 6.79333 171.716 6.43 171.903 6.11C172.089 5.78333 172.343 5.52667 172.663 5.34C172.989 5.14667 173.346 5.05 173.733 5.05C174.113 5.05 174.399 5.15 174.593 5.35C174.793 5.55 174.893 5.83 174.893 6.19C174.893 6.27667 174.883 6.34333 174.863 6.39C174.849 6.43 174.819 6.45 174.773 6.45H174.213C174.239 6.04333 174.179 5.74333 174.033 5.55C173.886 5.35 173.676 5.25 173.403 5.25C173.049 5.25 172.773 5.39 172.573 5.67C172.379 5.95 172.283 6.33333 172.283 6.82C172.283 7.2 172.343 7.53667 172.463 7.83C172.583 8.12333 172.759 8.35333 172.993 8.52C173.226 8.68667 173.509 8.77 173.843 8.77C174.069 8.77 174.256 8.73667 174.403 8.67C174.549 8.60333 174.696 8.52667 174.843 8.44C174.856 8.42667 174.873 8.43667 174.893 8.47C174.919 8.49667 174.926 8.52 174.913 8.54C174.679 8.74667 174.439 8.89667 174.193 8.99C173.953 9.07667 173.706 9.12 173.453 9.12ZM172.103 6.46L172.093 6.33L174.363 6.29V6.45L172.103 6.46ZM176.345 5.75C176.345 5.92333 176.388 6.07 176.475 6.19C176.568 6.31 176.681 6.41333 176.815 6.5C176.955 6.58 177.101 6.66 177.255 6.74C177.428 6.82667 177.591 6.92 177.745 7.02C177.898 7.11333 178.025 7.23 178.125 7.37C178.225 7.50333 178.275 7.68 178.275 7.9C178.275 8.11333 178.221 8.31333 178.115 8.5C178.008 8.68 177.848 8.82667 177.635 8.94C177.428 9.05333 177.171 9.11 176.865 9.11C176.698 9.11 176.538 9.08667 176.385 9.04C176.231 9 176.071 8.92333 175.905 8.81C175.891 8.79667 175.878 8.78 175.865 8.76C175.851 8.74 175.845 8.71667 175.845 8.69L175.825 7.91C175.825 7.89 175.841 7.88 175.875 7.88C175.915 7.87333 175.938 7.88 175.945 7.9C176.025 8.12667 176.125 8.31667 176.245 8.47C176.365 8.61667 176.501 8.73 176.655 8.81C176.808 8.88333 176.971 8.92 177.145 8.92C177.358 8.92 177.521 8.86667 177.635 8.76C177.755 8.65333 177.811 8.49667 177.805 8.29C177.798 8.09667 177.748 7.94 177.655 7.82C177.561 7.7 177.445 7.6 177.305 7.52C177.171 7.43333 177.031 7.35333 176.885 7.28C176.718 7.2 176.558 7.11667 176.405 7.03C176.258 6.93667 176.135 6.82 176.035 6.68C175.941 6.54 175.895 6.35667 175.895 6.13C175.895 5.87 175.961 5.66 176.095 5.5C176.228 5.33333 176.398 5.21333 176.605 5.14C176.811 5.06 177.028 5.02 177.255 5.02C177.381 5.02 177.505 5.03 177.625 5.05C177.745 5.07 177.865 5.11 177.985 5.17C178.045 5.19 178.075 5.22667 178.075 5.28C178.075 5.38667 178.071 5.5 178.065 5.62C178.058 5.73333 178.055 5.86333 178.055 6.01C178.055 6.02333 178.035 6.03 177.995 6.03C177.955 6.03 177.935 6.02333 177.935 6.01C177.935 5.85667 177.881 5.72 177.775 5.6C177.668 5.48 177.535 5.38667 177.375 5.32C177.215 5.24667 177.055 5.21 176.895 5.21C176.735 5.21 176.601 5.25333 176.495 5.34C176.395 5.42667 176.345 5.56333 176.345 5.75ZM181.034 9.12C180.58 9.12 180.21 9.02333 179.924 8.83C179.637 8.63 179.424 8.38 179.284 8.08C179.15 7.77333 179.084 7.46333 179.084 7.15C179.084 6.81667 179.147 6.52 179.274 6.26C179.407 6 179.58 5.78 179.794 5.6C180.007 5.42 180.244 5.28333 180.504 5.19C180.764 5.09667 181.017 5.05 181.264 5.05C181.457 5.05 181.64 5.07667 181.814 5.13C181.994 5.17667 182.14 5.24667 182.254 5.34C182.374 5.43333 182.434 5.54 182.434 5.66C182.434 5.74667 182.404 5.82333 182.344 5.89C182.284 5.95 182.197 5.98 182.084 5.98C181.977 5.98 181.887 5.94667 181.814 5.88C181.747 5.81333 181.69 5.73667 181.644 5.65C181.57 5.53 181.484 5.43333 181.384 5.36C181.284 5.28667 181.134 5.25 180.934 5.25C180.554 5.25 180.26 5.4 180.054 5.7C179.847 5.99333 179.744 6.37667 179.744 6.85C179.744 7.19 179.8 7.50667 179.914 7.8C180.034 8.09333 180.217 8.33 180.464 8.51C180.71 8.68333 181.03 8.77 181.424 8.77C181.604 8.77 181.78 8.74667 181.954 8.7C182.127 8.65333 182.29 8.56667 182.444 8.44C182.457 8.42667 182.474 8.43333 182.494 8.46C182.52 8.48667 182.527 8.50667 182.514 8.52C182.28 8.72667 182.047 8.88 181.814 8.98C181.58 9.07333 181.32 9.12 181.034 9.12ZM185.086 9.13C184.693 9.13 184.35 9.03333 184.056 8.84C183.763 8.64667 183.536 8.39 183.376 8.07C183.216 7.74333 183.136 7.39333 183.136 7.02C183.136 6.67333 183.2 6.37333 183.326 6.12C183.453 5.86667 183.623 5.66 183.836 5.5C184.05 5.33333 184.28 5.21 184.526 5.13C184.78 5.05 185.026 5.01 185.266 5.01C185.673 5.01 186.02 5.11 186.306 5.31C186.6 5.51 186.823 5.76667 186.976 6.08C187.13 6.39333 187.206 6.72333 187.206 7.07C187.206 7.49667 187.11 7.86333 186.916 8.17C186.723 8.47667 186.466 8.71333 186.146 8.88C185.826 9.04667 185.473 9.13 185.086 9.13ZM185.376 8.94C185.73 8.94 186.01 8.81667 186.216 8.57C186.423 8.31667 186.526 7.91 186.526 7.35C186.526 6.93 186.456 6.56 186.316 6.24C186.183 5.91333 185.996 5.66 185.756 5.48C185.516 5.29333 185.243 5.2 184.936 5.2C184.583 5.2 184.306 5.33 184.106 5.59C183.906 5.85 183.806 6.22333 183.806 6.71C183.806 7.11667 183.873 7.49 184.006 7.83C184.14 8.17 184.323 8.44 184.556 8.64C184.796 8.84 185.07 8.94 185.376 8.94ZM187.962 9C187.942 9 187.932 8.98 187.932 8.94C187.932 8.9 187.942 8.88 187.962 8.88C188.222 8.88 188.392 8.83667 188.472 8.75C188.552 8.65667 188.592 8.47 188.592 8.19V3.02C188.592 2.78667 188.568 2.61667 188.522 2.51C188.475 2.39667 188.392 2.34 188.272 2.34C188.172 2.34 188.018 2.38667 187.812 2.48C187.792 2.49333 187.772 2.48 187.752 2.44C187.732 2.4 187.735 2.37667 187.762 2.37L189.042 1.76C189.055 1.75333 189.072 1.75 189.092 1.75C189.105 1.75 189.122 1.76 189.142 1.78C189.168 1.79333 189.182 1.81 189.182 1.83V8.19C189.182 8.47 189.218 8.65667 189.292 8.75C189.365 8.83667 189.535 8.88 189.802 8.88C189.822 8.88 189.832 8.9 189.832 8.94C189.832 8.98 189.822 9 189.802 9C189.688 9 189.552 8.99667 189.392 8.99C189.232 8.98333 189.062 8.98 188.882 8.98C188.708 8.98 188.538 8.98333 188.372 8.99C188.212 8.99667 188.075 9 187.962 9ZM190.4 9C190.38 9 190.37 8.98 190.37 8.94C190.37 8.9 190.38 8.88 190.4 8.88C190.66 8.88 190.83 8.83667 190.91 8.75C190.99 8.65667 191.03 8.47 191.03 8.19V3.02C191.03 2.78667 191.006 2.61667 190.96 2.51C190.913 2.39667 190.83 2.34 190.71 2.34C190.61 2.34 190.456 2.38667 190.25 2.48C190.223 2.49333 190.2 2.48333 190.18 2.45C190.166 2.41 190.173 2.38333 190.2 2.37L191.47 1.75C191.483 1.75 191.49 1.75 191.49 1.75C191.49 1.75 191.493 1.75 191.5 1.75C191.52 1.75 191.54 1.76 191.56 1.78C191.58 1.79333 191.59 1.81 191.59 1.83V8.19C191.59 8.47 191.63 8.65667 191.71 8.75C191.79 8.83667 191.96 8.88 192.22 8.88C192.24 8.88 192.25 8.9 192.25 8.94C192.25 8.98 192.24 9 192.22 9C192.1 9 191.963 8.99667 191.81 8.99C191.656 8.98333 191.49 8.98 191.31 8.98C191.136 8.98 190.97 8.98333 190.81 8.99C190.65 8.99667 190.513 9 190.4 9ZM193.09 9C193.07 9 193.06 8.98 193.06 8.94C193.06 8.9 193.07 8.88 193.09 8.88C193.35 8.88 193.52 8.83667 193.6 8.75C193.68 8.65667 193.72 8.47 193.72 8.19V6.6C193.72 5.82 193.413 5.43 192.8 5.43C192.553 5.43 192.303 5.51 192.05 5.67C191.796 5.82333 191.58 6.03333 191.4 6.3L191.36 6.18C191.653 5.78 191.943 5.49 192.23 5.31C192.523 5.13 192.823 5.04 193.13 5.04C193.496 5.04 193.78 5.14333 193.98 5.35C194.18 5.55 194.28 5.85 194.28 6.25V8.19C194.28 8.47 194.32 8.65667 194.4 8.75C194.48 8.83667 194.65 8.88 194.91 8.88C194.93 8.88 194.94 8.9 194.94 8.94C194.94 8.98 194.93 9 194.91 9C194.79 9 194.653 8.99667 194.5 8.99C194.346 8.98333 194.18 8.98 194 8.98C193.826 8.98 193.66 8.98333 193.5 8.99C193.34 8.99667 193.203 9 193.09 9ZM197.32 9.12C196.92 9.12 196.583 9.03 196.31 8.85C196.037 8.66333 195.83 8.42333 195.69 8.13C195.557 7.83667 195.49 7.52667 195.49 7.2C195.49 6.79333 195.583 6.43 195.77 6.11C195.957 5.78333 196.21 5.52667 196.53 5.34C196.857 5.14667 197.213 5.05 197.6 5.05C197.98 5.05 198.267 5.15 198.46 5.35C198.66 5.55 198.76 5.83 198.76 6.19C198.76 6.27667 198.75 6.34333 198.73 6.39C198.717 6.43 198.687 6.45 198.64 6.45H198.08C198.107 6.04333 198.047 5.74333 197.9 5.55C197.753 5.35 197.543 5.25 197.27 5.25C196.917 5.25 196.64 5.39 196.44 5.67C196.247 5.95 196.15 6.33333 196.15 6.82C196.15 7.2 196.21 7.53667 196.33 7.83C196.45 8.12333 196.627 8.35333 196.86 8.52C197.093 8.68667 197.377 8.77 197.71 8.77C197.937 8.77 198.123 8.73667 198.27 8.67C198.417 8.60333 198.563 8.52667 198.71 8.44C198.723 8.42667 198.74 8.43667 198.76 8.47C198.787 8.49667 198.793 8.52 198.78 8.54C198.547 8.74667 198.307 8.89667 198.06 8.99C197.82 9.07667 197.573 9.12 197.32 9.12ZM195.97 6.46L195.96 6.33L198.23 6.29V6.45L195.97 6.46ZM204.812 9C204.792 9 204.782 8.98 204.782 8.94C204.782 8.9 204.792 8.88 204.812 8.88C205.072 8.88 205.242 8.83667 205.322 8.75C205.402 8.65667 205.442 8.47 205.442 8.19V6.6C205.442 5.82 205.155 5.43 204.582 5.43C204.342 5.43 204.102 5.51 203.862 5.67C203.629 5.82333 203.422 6.03333 203.242 6.3L203.202 6.18C203.489 5.78 203.772 5.49 204.052 5.31C204.332 5.13 204.619 5.04 204.912 5.04C205.259 5.04 205.525 5.14 205.712 5.34C205.905 5.53333 206.002 5.83667 206.002 6.25V8.19C206.002 8.47 206.039 8.65667 206.112 8.75C206.192 8.83667 206.365 8.88 206.632 8.88C206.652 8.88 206.662 8.9 206.662 8.94C206.662 8.98 206.652 9 206.632 9C206.519 9 206.382 8.99667 206.222 8.99C206.062 8.98333 205.895 8.98 205.722 8.98C205.549 8.98 205.382 8.98333 205.222 8.99C205.069 8.99667 204.932 9 204.812 9ZM202.232 9C202.212 9 202.202 8.98 202.202 8.94C202.202 8.9 202.212 8.88 202.232 8.88C202.492 8.88 202.659 8.83667 202.732 8.75C202.812 8.65667 202.852 8.47 202.852 8.19V6.6C202.852 5.82 202.569 5.43 202.002 5.43C201.762 5.43 201.522 5.51 201.282 5.67C201.049 5.82333 200.842 6.03333 200.662 6.3L200.622 6.18C200.902 5.78 201.182 5.49 201.462 5.31C201.742 5.13 202.029 5.04 202.322 5.04C202.669 5.04 202.939 5.13667 203.132 5.33C203.325 5.52333 203.422 5.82333 203.422 6.23V8.19C203.422 8.47 203.459 8.65667 203.532 8.75C203.612 8.83667 203.785 8.88 204.052 8.88C204.072 8.88 204.082 8.9 204.082 8.94C204.082 8.98 204.072 9 204.052 9C203.932 9 203.792 8.99667 203.632 8.99C203.479 8.98333 203.315 8.98 203.142 8.98C202.969 8.98 202.802 8.98333 202.642 8.99C202.482 8.99667 202.345 9 202.232 9ZM199.662 9C199.642 9 199.632 8.98 199.632 8.94C199.632 8.9 199.642 8.88 199.662 8.88C199.922 8.88 200.089 8.83667 200.162 8.75C200.242 8.65667 200.282 8.47 200.282 8.19V6.21C200.282 5.99 200.255 5.83 200.202 5.73C200.155 5.62333 200.065 5.57 199.932 5.57C199.865 5.57 199.785 5.58333 199.692 5.61C199.605 5.63667 199.505 5.67333 199.392 5.72C199.365 5.72667 199.342 5.71333 199.322 5.68C199.309 5.64667 199.315 5.62333 199.342 5.61L200.502 5.06C200.522 5.05333 200.542 5.05 200.562 5.05C200.609 5.05 200.669 5.12 200.742 5.26C200.815 5.4 200.852 5.60333 200.852 5.87V8.19C200.852 8.47 200.889 8.65667 200.962 8.75C201.042 8.83667 201.212 8.88 201.472 8.88C201.492 8.88 201.502 8.9 201.502 8.94C201.502 8.98 201.492 9 201.472 9C201.359 9 201.222 8.99667 201.062 8.99C200.909 8.98333 200.745 8.98 200.572 8.98C200.399 8.98 200.232 8.98333 200.072 8.99C199.912 8.99667 199.775 9 199.662 9ZM209.149 9.13C208.756 9.13 208.412 9.03333 208.119 8.84C207.826 8.64667 207.599 8.39 207.439 8.07C207.279 7.74333 207.199 7.39333 207.199 7.02C207.199 6.67333 207.262 6.37333 207.389 6.12C207.516 5.86667 207.686 5.66 207.899 5.5C208.112 5.33333 208.342 5.21 208.589 5.13C208.842 5.05 209.089 5.01 209.329 5.01C209.736 5.01 210.082 5.11 210.369 5.31C210.662 5.51 210.886 5.76667 211.039 6.08C211.192 6.39333 211.269 6.72333 211.269 7.07C211.269 7.49667 211.172 7.86333 210.979 8.17C210.786 8.47667 210.529 8.71333 210.209 8.88C209.889 9.04667 209.536 9.13 209.149 9.13ZM209.439 8.94C209.792 8.94 210.072 8.81667 210.279 8.57C210.486 8.31667 210.589 7.91 210.589 7.35C210.589 6.93 210.519 6.56 210.379 6.24C210.246 5.91333 210.059 5.66 209.819 5.48C209.579 5.29333 209.306 5.2 208.999 5.2C208.646 5.2 208.369 5.33 208.169 5.59C207.969 5.85 207.869 6.22333 207.869 6.71C207.869 7.11667 207.936 7.49 208.069 7.83C208.202 8.17 208.386 8.44 208.619 8.64C208.859 8.84 209.132 8.94 209.439 8.94ZM212.624 5.75C212.624 5.92333 212.667 6.07 212.754 6.19C212.847 6.31 212.961 6.41333 213.094 6.5C213.234 6.58 213.381 6.66 213.534 6.74C213.707 6.82667 213.871 6.92 214.024 7.02C214.177 7.11333 214.304 7.23 214.404 7.37C214.504 7.50333 214.554 7.68 214.554 7.9C214.554 8.11333 214.501 8.31333 214.394 8.5C214.287 8.68 214.127 8.82667 213.914 8.94C213.707 9.05333 213.451 9.11 213.144 9.11C212.977 9.11 212.817 9.08667 212.664 9.04C212.511 9 212.351 8.92333 212.184 8.81C212.171 8.79667 212.157 8.78 212.144 8.76C212.131 8.74 212.124 8.71667 212.124 8.69L212.104 7.91C212.104 7.89 212.121 7.88 212.154 7.88C212.194 7.87333 212.217 7.88 212.224 7.9C212.304 8.12667 212.404 8.31667 212.524 8.47C212.644 8.61667 212.781 8.73 212.934 8.81C213.087 8.88333 213.251 8.92 213.424 8.92C213.637 8.92 213.801 8.86667 213.914 8.76C214.034 8.65333 214.091 8.49667 214.084 8.29C214.077 8.09667 214.027 7.94 213.934 7.82C213.841 7.7 213.724 7.6 213.584 7.52C213.451 7.43333 213.311 7.35333 213.164 7.28C212.997 7.2 212.837 7.11667 212.684 7.03C212.537 6.93667 212.414 6.82 212.314 6.68C212.221 6.54 212.174 6.35667 212.174 6.13C212.174 5.87 212.241 5.66 212.374 5.5C212.507 5.33333 212.677 5.21333 212.884 5.14C213.091 5.06 213.307 5.02 213.534 5.02C213.661 5.02 213.784 5.03 213.904 5.05C214.024 5.07 214.144 5.11 214.264 5.17C214.324 5.19 214.354 5.22667 214.354 5.28C214.354 5.38667 214.351 5.5 214.344 5.62C214.337 5.73333 214.334 5.86333 214.334 6.01C214.334 6.02333 214.314 6.03 214.274 6.03C214.234 6.03 214.214 6.02333 214.214 6.01C214.214 5.85667 214.161 5.72 214.054 5.6C213.947 5.48 213.814 5.38667 213.654 5.32C213.494 5.24667 213.334 5.21 213.174 5.21C213.014 5.21 212.881 5.25333 212.774 5.34C212.674 5.42667 212.624 5.56333 212.624 5.75ZM219.167 9.08C218.84 9.08 218.58 8.97667 218.387 8.77C218.2 8.55667 218.107 8.25 218.107 7.85V6.32C218.107 6.06 218.083 5.87333 218.037 5.76C217.997 5.64 217.92 5.58 217.807 5.58C217.713 5.58 217.6 5.61333 217.467 5.68C217.44 5.68667 217.417 5.67 217.397 5.63C217.383 5.59 217.39 5.56667 217.417 5.56L218.527 5.06C218.54 5.05333 218.553 5.05 218.567 5.05C218.587 5.05 218.607 5.06 218.627 5.08C218.653 5.09333 218.667 5.11 218.667 5.13V7.52C218.667 7.91333 218.737 8.20667 218.877 8.4C219.017 8.58667 219.227 8.68 219.507 8.68C219.76 8.68 220.013 8.60333 220.267 8.45C220.527 8.29667 220.753 8.09 220.947 7.83L220.997 7.94C220.69 8.33333 220.387 8.62333 220.087 8.81C219.793 8.99 219.487 9.08 219.167 9.08ZM221.317 5.13V7.93C221.317 8.15667 221.343 8.32 221.397 8.42C221.45 8.52 221.54 8.57 221.667 8.57C221.733 8.57 221.807 8.56 221.887 8.54C221.973 8.51333 222.077 8.47667 222.197 8.43C222.23 8.41667 222.253 8.43 222.267 8.47C222.28 8.50333 222.273 8.52667 222.247 8.54L221.077 9.09C221.063 9.09667 221.05 9.1 221.037 9.1C220.983 9.1 220.923 9.03 220.857 8.89C220.79 8.74333 220.757 8.53667 220.757 8.27V6.32C220.757 6.06 220.733 5.87333 220.687 5.76C220.647 5.64 220.57 5.58 220.457 5.58C220.363 5.58 220.25 5.61333 220.117 5.68C220.09 5.68667 220.07 5.67 220.057 5.63C220.043 5.59 220.05 5.56667 220.077 5.56L221.187 5.06C221.2 5.05333 221.21 5.05 221.217 5.05C221.237 5.05 221.257 5.06 221.277 5.08C221.303 5.09333 221.317 5.11 221.317 5.13ZM227.878 9C227.858 9 227.848 8.98 227.848 8.94C227.848 8.9 227.858 8.88 227.878 8.88C228.138 8.88 228.308 8.83667 228.388 8.75C228.468 8.65667 228.508 8.47 228.508 8.19V6.6C228.508 5.82 228.222 5.43 227.648 5.43C227.408 5.43 227.168 5.51 226.928 5.67C226.695 5.82333 226.488 6.03333 226.308 6.3L226.268 6.18C226.555 5.78 226.838 5.49 227.118 5.31C227.398 5.13 227.685 5.04 227.978 5.04C228.325 5.04 228.592 5.14 228.778 5.34C228.972 5.53333 229.068 5.83667 229.068 6.25V8.19C229.068 8.47 229.105 8.65667 229.178 8.75C229.258 8.83667 229.432 8.88 229.698 8.88C229.718 8.88 229.728 8.9 229.728 8.94C229.728 8.98 229.718 9 229.698 9C229.585 9 229.448 8.99667 229.288 8.99C229.128 8.98333 228.962 8.98 228.788 8.98C228.615 8.98 228.448 8.98333 228.288 8.99C228.135 8.99667 227.998 9 227.878 9ZM225.298 9C225.278 9 225.268 8.98 225.268 8.94C225.268 8.9 225.278 8.88 225.298 8.88C225.558 8.88 225.725 8.83667 225.798 8.75C225.878 8.65667 225.918 8.47 225.918 8.19V6.6C225.918 5.82 225.635 5.43 225.068 5.43C224.828 5.43 224.588 5.51 224.348 5.67C224.115 5.82333 223.908 6.03333 223.728 6.3L223.688 6.18C223.968 5.78 224.248 5.49 224.528 5.31C224.808 5.13 225.095 5.04 225.388 5.04C225.735 5.04 226.005 5.13667 226.198 5.33C226.392 5.52333 226.488 5.82333 226.488 6.23V8.19C226.488 8.47 226.525 8.65667 226.598 8.75C226.678 8.83667 226.852 8.88 227.118 8.88C227.138 8.88 227.148 8.9 227.148 8.94C227.148 8.98 227.138 9 227.118 9C226.998 9 226.858 8.99667 226.698 8.99C226.545 8.98333 226.382 8.98 226.208 8.98C226.035 8.98 225.868 8.98333 225.708 8.99C225.548 8.99667 225.412 9 225.298 9ZM222.728 9C222.708 9 222.698 8.98 222.698 8.94C222.698 8.9 222.708 8.88 222.728 8.88C222.988 8.88 223.155 8.83667 223.228 8.75C223.308 8.65667 223.348 8.47 223.348 8.19V6.21C223.348 5.99 223.322 5.83 223.268 5.73C223.222 5.62333 223.132 5.57 222.998 5.57C222.932 5.57 222.852 5.58333 222.758 5.61C222.672 5.63667 222.572 5.67333 222.458 5.72C222.432 5.72667 222.408 5.71333 222.388 5.68C222.375 5.64667 222.382 5.62333 222.408 5.61L223.568 5.06C223.588 5.05333 223.608 5.05 223.628 5.05C223.675 5.05 223.735 5.12 223.808 5.26C223.882 5.4 223.918 5.60333 223.918 5.87V8.19C223.918 8.47 223.955 8.65667 224.028 8.75C224.108 8.83667 224.278 8.88 224.538 8.88C224.558 8.88 224.568 8.9 224.568 8.94C224.568 8.98 224.558 9 224.538 9C224.425 9 224.288 8.99667 224.128 8.99C223.975 8.98333 223.812 8.98 223.638 8.98C223.465 8.98 223.298 8.98333 223.138 8.99C222.978 8.99667 222.842 9 222.728 9ZM235.389 9.06C235.362 9.07333 235.336 9.08 235.309 9.08C235.222 9.08 235.139 9.01 235.059 8.87C234.979 8.72333 234.939 8.51333 234.939 8.24V6.35C234.939 5.93667 234.879 5.64667 234.759 5.48C234.646 5.31333 234.496 5.23 234.309 5.23C234.142 5.23 234.006 5.27333 233.899 5.36C233.792 5.44 233.712 5.53667 233.659 5.65C233.612 5.76333 233.579 5.87 233.559 5.97C233.539 6.06333 233.506 6.15667 233.459 6.25C233.412 6.33667 233.319 6.38 233.179 6.38C233.066 6.38 232.982 6.35 232.929 6.29C232.876 6.22333 232.849 6.15333 232.849 6.08C232.849 5.95333 232.909 5.83 233.029 5.71C233.156 5.59 233.312 5.48 233.499 5.38C233.692 5.27333 233.892 5.19 234.099 5.13C234.312 5.07 234.502 5.04 234.669 5.04C234.942 5.04 235.149 5.13 235.289 5.31C235.429 5.48333 235.499 5.73 235.499 6.05V7.92C235.499 8.15333 235.529 8.32333 235.589 8.43C235.649 8.53667 235.746 8.59 235.879 8.59C235.999 8.59 236.166 8.54667 236.379 8.46C236.412 8.44667 236.436 8.46 236.449 8.5C236.462 8.53333 236.452 8.55667 236.419 8.57L235.389 9.06ZM233.589 9.07C233.336 9.07 233.142 9.00333 233.009 8.87C232.876 8.73 232.809 8.56667 232.809 8.38C232.809 8.24667 232.842 8.12667 232.909 8.02C232.982 7.90667 233.096 7.80333 233.249 7.71C233.402 7.61667 233.599 7.52667 233.839 7.44L235.039 6.99L235.069 7.12L234.009 7.53C233.889 7.57667 233.789 7.63 233.709 7.69C233.629 7.75 233.569 7.81667 233.529 7.89C233.496 7.96333 233.479 8.04333 233.479 8.13C233.479 8.28333 233.529 8.41667 233.629 8.53C233.729 8.64333 233.866 8.7 234.039 8.7C234.106 8.7 234.176 8.69 234.249 8.67C234.322 8.65 234.412 8.60667 234.519 8.54L235.149 8.16L235.169 8.29L234.429 8.77C234.269 8.87667 234.122 8.95333 233.989 9C233.862 9.04667 233.729 9.07 233.589 9.07ZM238.748 9.13C238.355 9.13 238.012 9.03333 237.718 8.84C237.425 8.64667 237.198 8.39 237.038 8.07C236.878 7.74333 236.798 7.39333 236.798 7.02C236.798 6.67333 236.862 6.37333 236.988 6.12C237.115 5.86667 237.285 5.66 237.498 5.5C237.712 5.33333 237.942 5.21 238.188 5.13C238.442 5.05 238.688 5.01 238.928 5.01C239.335 5.01 239.682 5.11 239.968 5.31C240.262 5.51 240.485 5.76667 240.638 6.08C240.792 6.39333 240.868 6.72333 240.868 7.07C240.868 7.49667 240.772 7.86333 240.578 8.17C240.385 8.47667 240.128 8.71333 239.808 8.88C239.488 9.04667 239.135 9.13 238.748 9.13ZM239.038 8.94C239.392 8.94 239.672 8.81667 239.878 8.57C240.085 8.31667 240.188 7.91 240.188 7.35C240.188 6.93 240.118 6.56 239.978 6.24C239.845 5.91333 239.658 5.66 239.418 5.48C239.178 5.29333 238.905 5.2 238.598 5.2C238.245 5.2 237.968 5.33 237.768 5.59C237.568 5.85 237.468 6.22333 237.468 6.71C237.468 7.11667 237.535 7.49 237.668 7.83C237.802 8.17 237.985 8.44 238.218 8.64C238.458 8.84 238.732 8.94 239.038 8.94ZM245.877 9.13C245.484 9.13 245.141 9.03333 244.847 8.84C244.554 8.64667 244.327 8.39 244.167 8.07C244.007 7.74333 243.927 7.39333 243.927 7.02C243.927 6.67333 243.991 6.37333 244.117 6.12C244.244 5.86667 244.414 5.66 244.627 5.5C244.841 5.33333 245.071 5.21 245.317 5.13C245.571 5.05 245.817 5.01 246.057 5.01C246.464 5.01 246.811 5.11 247.097 5.31C247.391 5.51 247.614 5.76667 247.767 6.08C247.921 6.39333 247.997 6.72333 247.997 7.07C247.997 7.49667 247.901 7.86333 247.707 8.17C247.514 8.47667 247.257 8.71333 246.937 8.88C246.617 9.04667 246.264 9.13 245.877 9.13ZM246.167 8.94C246.521 8.94 246.801 8.81667 247.007 8.57C247.214 8.31667 247.317 7.91 247.317 7.35C247.317 6.93 247.247 6.56 247.107 6.24C246.974 5.91333 246.787 5.66 246.547 5.48C246.307 5.29333 246.034 5.2 245.727 5.2C245.374 5.2 245.097 5.33 244.897 5.59C244.697 5.85 244.597 6.22333 244.597 6.71C244.597 7.11667 244.664 7.49 244.797 7.83C244.931 8.17 245.114 8.44 245.347 8.64C245.587 8.84 245.861 8.94 246.167 8.94ZM250.173 9.08C249.846 9.08 249.586 8.97667 249.393 8.77C249.206 8.55667 249.113 8.25 249.113 7.85V6.32C249.113 6.06 249.089 5.87333 249.043 5.76C249.003 5.64 248.926 5.58 248.813 5.58C248.719 5.58 248.606 5.61333 248.473 5.68C248.446 5.68667 248.423 5.67 248.403 5.63C248.389 5.59 248.396 5.56667 248.423 5.56L249.533 5.06C249.546 5.05333 249.559 5.05 249.573 5.05C249.593 5.05 249.613 5.06 249.633 5.08C249.659 5.09333 249.673 5.11 249.673 5.13V7.52C249.673 7.91333 249.743 8.20667 249.883 8.4C250.023 8.58667 250.233 8.68 250.513 8.68C250.766 8.68 251.019 8.60333 251.273 8.45C251.533 8.29667 251.759 8.09 251.953 7.83L252.003 7.94C251.696 8.33333 251.393 8.62333 251.093 8.81C250.799 8.99 250.493 9.08 250.173 9.08ZM252.323 5.13V7.93C252.323 8.15667 252.349 8.32 252.403 8.42C252.456 8.52 252.546 8.57 252.673 8.57C252.739 8.57 252.813 8.56 252.893 8.54C252.979 8.51333 253.083 8.47667 253.203 8.43C253.236 8.41667 253.259 8.43 253.273 8.47C253.286 8.50333 253.279 8.52667 253.253 8.54L252.083 9.09C252.069 9.09667 252.056 9.1 252.043 9.1C251.989 9.1 251.929 9.03 251.863 8.89C251.796 8.74333 251.763 8.53667 251.763 8.27V6.32C251.763 6.06 251.739 5.87333 251.693 5.76C251.653 5.64 251.576 5.58 251.463 5.58C251.369 5.58 251.256 5.61333 251.123 5.68C251.096 5.68667 251.076 5.67 251.063 5.63C251.049 5.59 251.056 5.56667 251.083 5.56L252.193 5.06C252.206 5.05333 252.216 5.05 252.223 5.05C252.243 5.05 252.263 5.06 252.283 5.08C252.309 5.09333 252.323 5.11 252.323 5.13ZM255.164 9.12C255.004 9.12 254.851 9.09333 254.704 9.04C254.558 8.99333 254.438 8.91 254.344 8.79C254.251 8.67 254.204 8.50667 254.204 8.3V5.95C254.204 5.79 254.194 5.67 254.174 5.59C254.154 5.51 254.108 5.46 254.034 5.44C253.961 5.41333 253.848 5.4 253.694 5.4C253.668 5.4 253.654 5.38 253.654 5.34C253.654 5.29333 253.668 5.27 253.694 5.27C253.961 5.26333 254.178 5.19 254.344 5.05C254.518 4.91 254.614 4.73 254.634 4.51C254.634 4.49 254.658 4.48 254.704 4.48C254.758 4.48 254.784 4.49 254.784 4.51V7.96C254.784 8.23333 254.851 8.43667 254.984 8.57C255.124 8.70333 255.321 8.77 255.574 8.77C255.748 8.77 255.901 8.74333 256.034 8.69C256.174 8.63 256.288 8.56333 256.374 8.49C256.401 8.47667 256.424 8.48667 256.444 8.52C256.471 8.54667 256.471 8.57 256.444 8.59C256.198 8.77667 255.974 8.91333 255.774 9C255.581 9.08 255.378 9.12 255.164 9.12ZM256.134 5.63C255.874 5.56333 255.624 5.52 255.384 5.5C255.144 5.48 254.888 5.47 254.614 5.47V5.25C254.881 5.25 255.138 5.24 255.384 5.22C255.631 5.2 255.894 5.17667 256.174 5.15C256.188 5.15 256.201 5.17333 256.214 5.22C256.234 5.26667 256.244 5.32333 256.244 5.39C256.244 5.43667 256.231 5.49 256.204 5.55C256.184 5.61 256.161 5.63667 256.134 5.63ZM258.093 6.29L258.053 6.18C258.3 5.88 258.503 5.65 258.663 5.49C258.823 5.32333 258.96 5.21 259.073 5.15C259.193 5.08333 259.306 5.05 259.413 5.05C259.553 5.05 259.69 5.09 259.823 5.17C259.963 5.25 260.033 5.34667 260.033 5.46C260.033 5.54667 260.003 5.62 259.943 5.68C259.89 5.74 259.81 5.77 259.703 5.77C259.616 5.77 259.543 5.74333 259.483 5.69C259.423 5.63667 259.36 5.58667 259.293 5.54C259.226 5.49333 259.14 5.47 259.033 5.47C258.973 5.47 258.91 5.48667 258.843 5.52C258.776 5.55333 258.686 5.63 258.573 5.75C258.46 5.86333 258.3 6.04333 258.093 6.29ZM257.113 9C257.093 9 257.083 8.98 257.083 8.94C257.083 8.9 257.093 8.88 257.113 8.88C257.373 8.88 257.54 8.83667 257.613 8.75C257.693 8.65667 257.733 8.47 257.733 8.19V6.21C257.733 5.99 257.706 5.83 257.653 5.73C257.606 5.62333 257.516 5.57 257.383 5.57C257.316 5.57 257.236 5.58333 257.143 5.61C257.056 5.63667 256.956 5.67333 256.843 5.72C256.816 5.72667 256.793 5.71333 256.773 5.68C256.76 5.64667 256.766 5.62333 256.793 5.61L257.953 5.06C257.973 5.05333 257.993 5.05 258.013 5.05C258.06 5.05 258.12 5.12 258.193 5.26C258.266 5.4 258.303 5.60333 258.303 5.87V8.19C258.303 8.37667 258.326 8.52333 258.373 8.63C258.42 8.73 258.513 8.79667 258.653 8.83C258.793 8.86333 259 8.88 259.273 8.88C259.3 8.88 259.313 8.9 259.313 8.94C259.313 8.98 259.3 9 259.273 9C259.113 9 258.923 8.99667 258.703 8.99C258.49 8.98333 258.263 8.98 258.023 8.98C257.85 8.98 257.683 8.98333 257.523 8.99C257.363 8.99667 257.226 9 257.113 9ZM262.498 9.13C262.105 9.13 261.762 9.03333 261.468 8.84C261.175 8.64667 260.948 8.39 260.788 8.07C260.628 7.74333 260.548 7.39333 260.548 7.02C260.548 6.67333 260.612 6.37333 260.738 6.12C260.865 5.86667 261.035 5.66 261.248 5.5C261.462 5.33333 261.692 5.21 261.938 5.13C262.192 5.05 262.438 5.01 262.678 5.01C263.085 5.01 263.432 5.11 263.718 5.31C264.012 5.51 264.235 5.76667 264.388 6.08C264.542 6.39333 264.618 6.72333 264.618 7.07C264.618 7.49667 264.522 7.86333 264.328 8.17C264.135 8.47667 263.878 8.71333 263.558 8.88C263.238 9.04667 262.885 9.13 262.498 9.13ZM262.788 8.94C263.142 8.94 263.422 8.81667 263.628 8.57C263.835 8.31667 263.938 7.91 263.938 7.35C263.938 6.93 263.868 6.56 263.728 6.24C263.595 5.91333 263.408 5.66 263.168 5.48C262.928 5.29333 262.655 5.2 262.348 5.2C261.995 5.2 261.718 5.33 261.518 5.59C261.318 5.85 261.218 6.22333 261.218 6.71C261.218 7.11667 261.285 7.49 261.418 7.83C261.552 8.17 261.735 8.44 261.968 8.64C262.208 8.84 262.482 8.94 262.788 8.94ZM265.964 9.11C265.83 9.11 265.724 9.07333 265.644 9C265.564 8.92 265.524 8.81333 265.524 8.68C265.524 8.55333 265.564 8.45333 265.644 8.38C265.724 8.3 265.83 8.26 265.964 8.26C266.104 8.26 266.21 8.3 266.284 8.38C266.357 8.45333 266.394 8.55333 266.394 8.68C266.394 8.81333 266.357 8.92 266.284 9C266.21 9.07333 266.104 9.11 265.964 9.11Z" fill="#2E547D"/>
<g clip-path="url(#heroTrailsClip)">
<path d="M175.234 25.625C176.454 25.625 177.441 26.7219 177.441 28.075C177.441 26.7219 178.429 25.625 179.648 25.625C180.868 25.625 181.855 26.7219 181.855 28.075C181.855 30.1144 180.071 30.8338 177.658 34.08C177.631 34.1157 177.598 34.1443 177.561 34.164C177.523 34.1836 177.482 34.1938 177.441 34.1938C177.4 34.1938 177.359 34.1836 177.322 34.164C177.285 34.1443 177.252 34.1157 177.225 34.08C174.812 30.8338 173.027 30.1144 173.027 28.075C173.027 26.7219 174.015 25.625 175.234 25.625Z" fill="#E8753D"/>
</g>
<line x1="192.448" y1="28.7" x2="252.478" y2="28.7" stroke="#E8753D" stroke-opacity="0.7" stroke-width="0.6"/>
<line x1="103.286" y1="28.7" x2="162.433" y2="28.7" stroke="#E8753D" stroke-opacity="0.7" stroke-width="0.6"/>
<defs>
<clipPath id="heroTrailsClip">
<rect width="8.82793" height="10" fill="white" transform="translate(173.027 25)"/>
</clipPath>
</defs>
</svg>